<svg viewBox="0 0 1513 400" xmlns="http://www.w3.org/2000/svg"><g><g><g><g><g><line x1="34" y1="351.97788089762105" x2="29" y2="351.97788089762105" style="visibility: inherit;" fill="rgb(0, 0, 0)" stroke="rgb(204, 204, 204)" stroke-width="1px"></line><line x1="34" y1="302.8653650203499" x2="29" y2="302.8653650203499" style="visibility: inherit;" fill="rgb(0, 0, 0)" stroke="rgb(204, 204, 204)" stroke-width="1px"></line><line x1="34" y1="253.75284914307872" x2="29" y2="253.75284914307872" style="visibility: inherit;" fill="rgb(0, 0, 0)" stroke="rgb(204, 204, 204)" stroke-width="1px"></line><line x1="34" y1="204.64033326580753" x2="29" y2="204.64033326580753" style="visibility: inherit;" fill="rgb(0, 0, 0)" stroke="rgb(204, 204, 204)" stroke-width="1px"></line><line x1="34" y1="155.52781738853633" x2="29" y2="155.52781738853633" style="visibility: inherit;" fill="rgb(0, 0, 0)" stroke="rgb(204, 204, 204)" stroke-width="1px"></line><line x1="34" y1="106.41530151126517" x2="29" y2="106.41530151126517" style="visibility: inherit;" fill="rgb(0, 0, 0)" stroke="rgb(204, 204, 204)" stroke-width="1px"></line><line x1="34" y1="57.30278563399395" x2="29" y2="57.30278563399395" style="visibility: inherit;" fill="rgb(0, 0, 0)" stroke="rgb(204, 204, 204)" stroke-width="1px"></line><line x1="34" y1="8.190269756722785" x2="29" y2="8.190269756722785" style="visibility: inherit;" fill="rgb(0, 0, 0)" stroke="rgb(204, 204, 204)" stroke-width="1px"></line></g><g transform="translate(24, 0)"><text x="0" y="351.97788089762105" dx="0em" dy="0.3em" style="text-anchor: end; visibility: inherit; font-family: &quot;Helvetica Neue&quot;, sans-serif; font-size: 12px; font-weight: 200;" fill="rgb(50, 49, 63)" stroke="none" stroke-width="1px">-2</text><text x="0" y="302.8653650203499" dx="0em" dy="0.3em" style="text-anchor: end; visibility: inherit; font-family: &quot;Helvetica Neue&quot;, sans-serif; font-size: 12px; font-weight: 200;" fill="rgb(50, 49, 63)" stroke="none" stroke-width="1px">0</text><text x="0" y="253.75284914307872" dx="0em" dy="0.3em" style="text-anchor: end; visibility: inherit; font-family: &quot;Helvetica Neue&quot;, sans-serif; font-size: 12px; font-weight: 200;" fill="rgb(50, 49, 63)" stroke="none" stroke-width="1px">2</text><text x="0" y="204.64033326580753" dx="0em" dy="0.3em" style="text-anchor: end; visibility: inherit; font-family: &quot;Helvetica Neue&quot;, sans-serif; font-size: 12px; font-weight: 200;" fill="rgb(50, 49, 63)" stroke="none" stroke-width="1px">4</text><text x="0" y="155.52781738853633" dx="0em" dy="0.3em" style="text-anchor: end; visibility: inherit; font-family: &quot;Helvetica Neue&quot;, sans-serif; font-size: 12px; font-weight: 200;" fill="rgb(50, 49, 63)" stroke="none" stroke-width="1px">6</text><text x="0" y="106.41530151126517" dx="0em" dy="0.3em" style="text-anchor: end; visibility: inherit; font-family: &quot;Helvetica Neue&quot;, sans-serif; font-size: 12px; font-weight: 200;" fill="rgb(50, 49, 63)" stroke="none" stroke-width="1px">8</text><text x="0" y="57.30278563399395" dx="0em" dy="0.3em" style="text-anchor: end; visibility: inherit; font-family: &quot;Helvetica Neue&quot;, sans-serif; font-size: 12px; font-weight: 200;" fill="rgb(50, 49, 63)" stroke="none" stroke-width="1px">10</text><text x="0" y="8.190269756722785" dx="0em" dy="0.3em" style="text-anchor: end; visibility: inherit; font-family: &quot;Helvetica Neue&quot;, sans-serif; font-size: 12px; font-weight: 200;" fill="rgb(50, 49, 63)" stroke="none" stroke-width="1px">12</text></g><line x1="34" y1="0" x2="34" y2="378" fill="rgb(0, 0, 0)" stroke="rgb(204, 204, 204)" stroke-width="1px"></line></g></g><g transform="translate(34, 0)" clip-path="url(#clip_0)"><clipPath id="clip_0"><rect width="1479" height="378"></rect></clipPath><g><g><g><line x1="65.24200696521014" y1="0" x2="65.24200696521014" y2="378" fill="rgb(0, 0, 0)" stroke="rgb(60, 60, 60)" stroke-width="1px" opacity="0.25"></line><line x1="192.37329908576976" y1="0" x2="192.37329908576976" y2="378" fill="rgb(0, 0, 0)" stroke="rgb(60, 60, 60)" stroke-width="1px" opacity="0.25"></line><line x1="319.50459120632934" y1="0" x2="319.50459120632934" y2="378" fill="rgb(0, 0, 0)" stroke="rgb(60, 60, 60)" stroke-width="1px" opacity="0.25"></line><line x1="446.63588332688903" y1="0" x2="446.63588332688903" y2="378" fill="rgb(0, 0, 0)" stroke="rgb(60, 60, 60)" stroke-width="1px" opacity="0.25"></line><line x1="573.7671754474486" y1="0" x2="573.7671754474486" y2="378" fill="rgb(0, 0, 0)" stroke="rgb(60, 60, 60)" stroke-width="1px" opacity="0.25"></line><line x1="700.8984675680082" y1="0" x2="700.8984675680082" y2="378" fill="rgb(0, 0, 0)" stroke="rgb(60, 60, 60)" stroke-width="1px" opacity="0.25"></line><line x1="828.0297596885678" y1="0" x2="828.0297596885678" y2="378" fill="rgb(0, 0, 0)" stroke="rgb(60, 60, 60)" stroke-width="1px" opacity="0.25"></line><line x1="955.1610518091276" y1="0" x2="955.1610518091276" y2="378" fill="rgb(0, 0, 0)" stroke="rgb(60, 60, 60)" stroke-width="1px" opacity="0.25"></line><line x1="1082.2923439296871" y1="0" x2="1082.2923439296871" y2="378" fill="rgb(0, 0, 0)" stroke="rgb(60, 60, 60)" stroke-width="1px" opacity="0.25"></line><line x1="1209.4236360502466" y1="0" x2="1209.4236360502466" y2="378" fill="rgb(0, 0, 0)" stroke="rgb(60, 60, 60)" stroke-width="1px" opacity="0.25"></line><line x1="1336.5549281708063" y1="0" x2="1336.5549281708063" y2="378" fill="rgb(0, 0, 0)" stroke="rgb(60, 60, 60)" stroke-width="1px" opacity="0.25"></line><line x1="1463.6862202913658" y1="0" x2="1463.6862202913658" y2="378" fill="rgb(0, 0, 0)" stroke="rgb(60, 60, 60)" stroke-width="1px" opacity="0.25"></line></g><g><line x1="0" y1="351.97788089762105" x2="1479" y2="351.97788089762105" fill="rgb(0, 0, 0)" stroke="rgb(60, 60, 60)" stroke-width="1px" opacity="0.25"></line><line x1="0" y1="302.8653650203499" x2="1479" y2="302.8653650203499" fill="rgb(0, 0, 0)" stroke="rgb(60, 60, 60)" stroke-width="1px" opacity="0.25"></line><line x1="0" y1="253.75284914307872" x2="1479" y2="253.75284914307872" fill="rgb(0, 0, 0)" stroke="rgb(60, 60, 60)" stroke-width="1px" opacity="0.25"></line><line x1="0" y1="204.64033326580753" x2="1479" y2="204.64033326580753" fill="rgb(0, 0, 0)" stroke="rgb(60, 60, 60)" stroke-width="1px" opacity="0.25"></line><line x1="0" y1="155.52781738853633" x2="1479" y2="155.52781738853633" fill="rgb(0, 0, 0)" stroke="rgb(60, 60, 60)" stroke-width="1px" opacity="0.25"></line><line x1="0" y1="106.41530151126517" x2="1479" y2="106.41530151126517" fill="rgb(0, 0, 0)" stroke="rgb(60, 60, 60)" stroke-width="1px" opacity="0.25"></line><line x1="0" y1="57.30278563399395" x2="1479" y2="57.30278563399395" fill="rgb(0, 0, 0)" stroke="rgb(60, 60, 60)" stroke-width="1px" opacity="0.25"></line><line x1="0" y1="8.190269756722785" x2="1479" y2="8.190269756722785" fill="rgb(0, 0, 0)" stroke="rgb(60, 60, 60)" stroke-width="1px" opacity="0.25"></line></g></g></g><g><g><line x1="0" y1="302.8653650203499" x2="1479" y2="302.8653650203499" fill="rgb(0, 0, 0)" stroke="rgb(153, 153, 153)" stroke-width="1.5px"></line></g></g><g><g><line x1="446.63588332688903" y1="0" x2="446.63588332688903" y2="378" fill="rgb(0, 0, 0)" stroke="rgb(153, 153, 153)" stroke-width="1.5px"></line></g></g><g><g><g><g><g><path stroke="rgb(0, 119, 187)" stroke-width="2px" d="M446.63588332688903,202.70760193346098L449.1785091693002,234.06810613503362L451.7211350117114,236.2519163885567L454.26376085412255,250.57455377313568L456.8063866965337,255.90621528313363L459.349012538945,266.46565940045014L461.89163838135613,270.7279315301694L464.43426422376734,276.42734808258L466.9768900661785,280.2550289032019L469.51951590858977,281.0350793008207L472.0621417510009,280.59574859095216L474.60476759341213,280.3937661152289L477.1473934358233,282.9677608583403L479.69001927823444,283.6393290121149L482.2326451206457,286.79992419116843L484.77527096305687,284.6714195042734L487.3178968054681,286.82867750102906L489.86052264787924,287.5708908764592L492.4031484902905,283.22599854310073L494.94577433270166,284.4498601124265L497.4884001751129,286.01527425844733L499.26823826480063,283.9120999957513L501.8108641072119,286.0901780956556L504.35348994962305,287.86898264320257L506.89611579203427,287.90837580543473L509.4387416344454,287.61827699506637L511.9813674768567,288.8422907862312L514.5239933192678,289.2628094023071L517.066619161679,289.2198963157932L519.6092450040902,288.6745319262973L522.1518708465014,288.5051786620454L524.6944966889126,286.47952063256076L527.2371225313237,288.50252362956877L529.779748373735,289.63473792867705L532.3223742161462,288.12820502823877L534.8650000585574,288.5104282732855L537.4076259009686,287.1633881314338L539.9502517433798,287.77544858303185L542.4928775857909,287.13291326009545L545.0355034282021,287.53302295849676L547.5781292706133,288.7661432415498L550.1207551130245,289.25376088702643L551.9005932027123,289.78469609043685L554.4432190451236,289.17439128086323L556.9858448875348,289.55189351567367L559.528470729946,289.2593697451498L562.0710965723571,290.99578693581475L564.6137224147683,288.15819188150715L567.1563482571795,286.8302375924611L569.6989740995907,280.58621856435855L572.2415999420019,282.89814512623207L574.784225784413,286.75889219909715L577.3268516268244,286.7191652617933L579.8694774692354,288.1758886048011L582.4121033116467,288.0618894031643L584.9547291540579,285.6856833346243L587.497354996469,286.20974684503193L590.0399808388803,288.35158290023844L592.5826066812914,287.57024809589313L595.1252325237026,287.68076252606437L597.6678583661138,288.5693967923091L600.210484208525,289.03901673301516L602.7531100509362,289.13986013194733L604.5329481406241,290.4114824329439L607.0755739830352,290.56009035909494L609.6181998254465,287.32567564947516L612.1608256678576,287.57199360661104L614.7034515102688,289.01052676364105L617.24607735268,289.3833820182075L619.7887031950912,291.12564620327095L622.3313290375024,291.6655694586099L624.8739548799136,292.73113861430704L627.4165807223247,290.0028565595715L629.959206564736,291.95687290401753L632.5018324071472,291.79790717474316L635.0444582495583,291.4952736564596L637.5870840919696,288.7529667985657L640.1297099343807,289.41353095972323L642.6723357767919,288.69726179153105L645.2149616192031,287.72611737262434L647.7575874616143,290.3760166418464L650.3002133040255,288.32821963744095L652.8428391464366,289.04730755489123L655.3854649888478,290.55444667664653L657.1653030785358,289.7017858132965L659.7079289209469,290.67421125140464L662.2505547633581,291.7338389677424L664.7931806057693,291.5249462339678L667.3358064481805,291.33587228548475L669.8784322905917,291.766432554773L672.4210581330028,292.7973240834841L674.963683975414,290.5139060950791L677.5063098178252,291.11958009703096L680.0489356602365,291.90391815790815L682.5915615026477,289.2272390521281L685.1341873450589,288.96832398118556L687.67681318747,289.0872895589854L690.2194390298813,288.63010302713485L692.7620648722924,290.4992588776913L695.3046907147036,288.86453212498014L697.8473165571148,290.0447129179938L700.3899423995259,289.90495860149565L702.9325682419372,289.47909210729256L705.4751940843483,289.4197293535242L708.0178199267596,290.5601388876887L709.7976580164475,287.5147853720212L712.3402838588586,287.29102927757117L714.8829097012698,287.17069919263787L717.425535543681,288.50178956620874L719.9681613860921,290.46184806493255L722.5107872285034,290.191734763421L725.0534130709145,290.9359746775862L727.5960389133257,291.7345123976768L730.138664755737,291.10074692624113L732.6812905981482,289.92831650341964L735.2239164405594,288.88192633346046L737.7665422829705,290.12500148849074L740.3091681253817,291.1966746703125L742.8517939677929,292.48473478963473L745.3944198102041,293.2569212857995L747.9370456526153,293.4926285691075L750.4796714950264,291.74990686292097L753.0222973374376,289.98462154598894L755.5649231798488,289.4133227780851L758.1075490222602,289.6045085708188L760.6501748646712,288.3173519644155L762.4300129543591,287.10843792855803L764.9726387967703,289.99652832206L767.5152646391815,289.18415487416684L770.0578904815926,290.16273355672496L772.6005163240038,288.81891022535206L775.143142166415,289.41653871161725L777.6857680088261,289.0368392253813L780.2283938512373,288.04885293698925L782.7710196936487,290.4750702549586L785.3136455360599,289.67306644006237L787.856271378471,290.08360182636557L790.3988972208822,288.4715855300082L792.9415230632934,288.9751813804848L795.4841489057046,288.74358226348L798.0267747481157,286.90316139030153L800.5694005905269,287.5312893572091L803.1120264329383,288.5786761027264L805.6546522753492,286.53527824429034L808.1972781177606,287.04063585033134L810.7399039601718,285.38118240708184L813.282529802583,287.6088330057896L815.0623678922708,289.73500761986304L817.6049937346819,288.51939156108085L820.1476195770931,289.45483105718586L822.6902454195044,289.1060524597127L825.2328712619154,290.0213007756165L827.7754971043267,291.22727942025546L830.318122946738,292.28414622469955L832.8607487891492,291.5476762043176L835.4033746315603,292.22879594203226L837.9460004739715,292.84986489859523L840.4886263163827,289.50752028800866L843.0312521587938,289.43530034718344L845.573878001205,290.35082690065735L848.1165038436163,292.3632656727846L850.6591296860275,291.4019531924869L853.2017555284386,291.1045946700149L855.7443813708499,289.96912661821267L858.2870072132611,289.9516539139005L860.8296330556723,288.3381399107355L863.3722588980834,287.3821061763791L865.9148847404946,287.9670211302315L867.6947228301825,289.5664526125594L870.2373486725937,289.0213174760611L872.7799745150048,288.0286572302849L875.322600357416,289.6801918990545L877.8652261998272,289.70920741305457L880.4078520422385,288.707135164177L882.9504778846496,287.0279859388788L885.4931037270608,287.40904687215783L888.035729569472,289.5626672821409L890.5783554118831,289.3005914133107L893.1209812542943,289.63116210945395L895.6636070967056,288.93082350823516L898.2062329391168,289.02353552720047L900.7488587815279,290.5738337505518L903.2914846239391,290.4721959270108L905.8341104663504,289.98697929675757L908.3767363087616,290.9785166503417L910.9193621511727,291.40184898539474L913.4619879935839,291.3425006936667L916.0046138359952,292.37426914491084L918.5472396784062,291.40050861989056L920.3270777680941,291.2724784895135L922.8697036105053,291.86734511581943L925.4123294529165,291.0056841281054L927.9549552953276,292.4787843697869L930.4975811377388,291.9682487456812L933.0402069801501,291.7314328202734L935.5828328225614,290.4308663245104L938.1254586649724,291.01762012229625L940.6680845073837,289.69513603123585L943.2107103497949,289.690329676224L945.7533361922061,289.4254740541943L948.2959620346172,290.69596151081515L950.8385878770284,290.12166955061423L953.3812137194396,289.7375981978504L955.9238395618507,290.98393482510517L958.466465404262,290.90516685165835L961.0090912466733,289.5396379626484L963.5517170890845,290.2750845403243L966.0943429314956,291.76571656305487L968.6369687739068,291.9510963448614L971.179594616318,290.213112649747" style="fill: none;" fill="none"></path></g><g><path stroke="rgb(255, 112, 67)" stroke-width="2px" d="M446.63588332688903,40.12903001524313L449.1785091693002,98.51737177359104L451.7211350117114,148.86910976658842L454.26376085412255,193.54335147628944L456.8063866965337,214.43527731333157L459.349012538945,237.52798913908347L461.89163838135613,252.1692779912441L464.43426422376734,264.58886843248393L466.9768900661785,272.993532557576L469.51951590858977,277.15921173506075L472.0621417510009,278.60550655981024L474.60476759341213,278.4811070175244L477.1473934358233,282.64959097201347L479.69001927823444,284.57240731131014L482.2326451206457,288.5136492300749L484.77527096305687,287.3672105023412L487.3178968054681,288.91774420500496L489.86052264787924,290.0348514668642L492.4031484902905,286.0300610999072L494.94577433270166,287.4234742045717L497.4884001751129,288.4056275257152L499.26823826480063,286.2841060148751L501.8108641072119,288.16298346068106L504.35348994962305,289.75766733706627L506.89611579203427,289.5816164988938L509.4387416344454,289.2271923553869L511.9813674768567,290.6365645967226L514.5239933192678,290.6691101155943L517.066619161679,290.41441285461025L519.6092450040902,289.8252530718041L522.1518708465014,289.80318482284025L524.6944966889126,288.52395200133253L527.2371225313237,290.2313504939126L529.779748373735,291.22566258517554L532.3223742161462,289.4831529601349L534.8650000585574,289.6609022546947L537.4076259009686,288.53423553765464L539.9502517433798,289.2047108273979L542.4928775857909,288.6836920009521L545.0355034282021,288.9486202985353L547.5781292706133,290.20030014779934L550.1207551130245,291.02413632270077L551.9005932027123,291.20933321252943L554.4432190451236,290.4330929627558L556.9858448875348,290.82988457463057L559.528470729946,290.5561189863349L562.0710965723571,291.8533542902604L564.6137224147683,289.41626050948736L567.1563482571795,288.290752456855L569.6989740995907,284.4273577679162L572.2415999420019,285.6880693972944L574.784225784413,288.5072379313381L577.3268516268244,287.2014741981684L579.8694774692354,288.82236803235554L582.4121033116467,288.99455744160184L584.9547291540579,286.6860844627442L587.497354996469,287.35214149968743L590.0399808388803,289.3502338993584L592.5826066812914,288.41216796665867L595.1252325237026,288.9418580730551L597.6678583661138,289.6054301014636L600.210484208525,290.10359622516995L602.7531100509362,290.05494347904255L604.5329481406241,291.08619411051876L607.0755739830352,291.1302839305195L609.6181998254465,288.1001537642175L612.1608256678576,288.3429358232488L614.7034515102688,289.8232559886924L617.24607735268,290.1619675784824L619.7887031950912,291.8969507686377L622.3313290375024,292.43373168727067L624.8739548799136,293.45548547876103L627.4165807223247,290.71384541099087L629.959206564736,292.5071361260904L632.5018324071472,292.3664106965213L635.0444582495583,292.0058370892933L637.5870840919696,289.3099999910114L640.1297099343807,289.9456172883034L642.6723357767919,289.2497454173391L645.2149616192031,288.4680332494631L647.7575874616143,290.9517603951633L650.3002133040255,288.9552432256064L652.8428391464366,289.6132120768656L655.3854649888478,290.92635370249707L657.1653030785358,290.10279367553443L659.7079289209469,291.28493637832304L662.2505547633581,292.1857038975178L664.7931806057693,292.02800430977084L667.3358064481805,291.7602265999011L669.8784322905917,292.1995800278511L672.4210581330028,293.02978608176227L674.963683975414,290.94492000617015L677.5063098178252,291.55387386113705L680.0489356602365,292.1323973693058L682.5915615026477,289.5429975844288L685.1341873450589,289.2603388349262L687.67681318747,289.507752860886L690.2194390298813,289.1063091838165L692.7620648722924,290.7484336349915L695.3046907147036,287.9484774275323L697.8473165571148,289.5827072100971L700.3899423995259,289.76863195760063L702.9325682419372,289.6141225840602L705.4751940843483,289.5795637673608L708.0178199267596,290.70019134472767L709.7976580164475,287.7644875611334L712.3402838588586,287.5814867450215L714.8829097012698,287.52942147960994L717.425535543681,288.9453904160396L719.9681613860921,290.8441868527186L722.5107872285034,290.51574186193665L725.0534130709145,291.23342255937644L727.5960389133257,291.954255366104L730.138664755737,291.26974994402457L732.6812905981482,290.1190464984856L735.2239164405594,289.0114348317226L737.7665422829705,290.2730507177127L740.3091681253817,291.34339545900684L742.8517939677929,292.58220850067096L745.3944198102041,293.3204094972683L747.9370456526153,293.53236695046553L750.4796714950264,291.74847177663594L753.0222973374376,289.9842212565994L755.5649231798488,289.43444043377417L758.1075490222602,289.5938500681515L760.6501748646712,288.39396610390287L762.4300129543591,287.2158136843545L764.9726387967703,290.16667854348685L767.5152646391815,289.3747611489498L770.0578904815926,290.2970134388916L772.6005163240038,288.94370724500834L775.143142166415,289.5715204927079L777.6857680088261,289.2192911357985L780.2283938512373,288.2348352281745L782.7710196936487,290.7040062065818L785.3136455360599,289.85898545753787L787.856271378471,290.16598410931465L790.3988972208822,288.50685362851505L792.9415230632934,289.0038081123829L795.4841489057046,288.8889117186909L798.0267747481157,287.1514537697098L800.5694005905269,287.71360067969545L803.1120264329383,288.76738720918763L805.6546522753492,286.64916004553027L808.1972781177606,287.13055694712324L810.7399039601718,285.5645290854049L813.282529802583,287.7402488995188L815.0623678922708,289.8378926178907L817.6049937346819,288.6564856044129L820.1476195770931,289.5604218484673L822.6902454195044,289.24488473049223L825.2328712619154,290.07675094547693L827.7754971043267,291.25805279894945L830.318122946738,292.2996284694395L832.8607487891492,291.62143569289566L835.4033746315603,292.27402438828824L837.9460004739715,292.8697035370632L840.4886263163827,289.61635804031437L843.0312521587938,289.5867989355155L845.573878001205,290.4345458886671L848.1165038436163,292.38746369830244L850.6591296860275,291.40967181076945L853.2017555284386,291.1756971082839L855.7443813708499,290.0185279751205L858.2870072132611,290.00617296931205L860.8296330556723,288.4208859232522L863.3722588980834,287.6329705308368L865.9148847404946,288.17669238231497L867.6947228301825,289.6976639062241L870.2373486725937,289.10127958723444L872.7799745150048,288.2094523271568L875.322600357416,289.8143929052552L877.8652261998272,289.82541807366977L880.4078520422385,288.80580703976L882.9504778846496,287.0918833371319L885.4931037270608,287.51544875540594L888.035729569472,289.66333573826796L890.5783554118831,289.46716982078203L893.1209812542943,289.7872372717918L895.6636070967056,289.02412025288436L898.2062329391168,289.0754141353683L900.7488587815279,290.622483937153L903.2914846239391,290.4782788348126L905.8341104663504,290.0488092204718L908.3767363087616,290.986782705918L910.9193621511727,291.41083253214344L913.4619879935839,291.3822345976751L916.0046138359952,292.3683162521574L918.5472396784062,291.40891143695615L920.3270777680941,291.2987351551734L922.8697036105053,291.91172668595004L925.4123294529165,291.0103059581657L927.9549552953276,292.4788783716888L930.4975811377388,291.95304905262014L933.0402069801501,291.6951204128598L935.5828328225614,290.4299970238088L938.1254586649724,291.0350085571389L940.6680845073837,289.7183832042683L943.2107103497949,289.7160973840558L945.7533361922061,289.48687801607684L948.2959620346172,290.71046598717754L950.8385878770284,290.14055643163647L953.3812137194396,289.7627192408336L955.9238395618507,290.9667558405906L958.466465404262,290.9028226878009L961.0090912466733,289.5606759200609L963.5517170890845,290.3362770560765L966.0943429314956,291.79675128802376L968.6369687739068,291.97192029145845L971.179594616318,290.25467017574846" style="fill: none;" fill="none"></path></g></g></g></g><g opacity="0.2"><g><g><g><path stroke="rgb(0, 119, 187)" stroke-width="2px" d="M446.63588332688903,202.70760193346098L449.1785091693002,252.88440865597727L451.7211350117114,238.3483742319389L454.26376085412255,267.41797533740055L456.8063866965337,262.867232550587L459.349012538945,281.07317201458113L461.89163838135613,276.823048872022L464.43426422376734,284.7371521303936L466.9768900661785,285.90011462489656L469.51951590858977,282.1933632310912L472.0621417510009,279.94073722335304L474.60476759341213,280.0918915813574L477.1473934358233,286.82034843357275L479.69001927823444,284.6453655708517L482.2326451206457,291.53710179875986L484.77527096305687,281.48016366034585L487.3178968054681,290.0636516168765L489.86052264787924,288.6840224917087L492.4031484902905,276.70932194367873L494.94577433270166,286.28554060062L497.4884001751129,288.36330962644655L499.26823826480063,280.7574078075523L501.8108641072119,289.3572522431593L504.35348994962305,290.53716839288745L506.89611579203427,287.96746526879326L509.4387416344454,287.18313001665274L511.9813674768567,290.6783083410627L514.5239933192678,289.8935866808258L517.066619161679,289.15552672555145L519.6092450040902,287.856485643468L522.1518708465014,288.25114882182686L524.6944966889126,283.44103399137197L527.2371225313237,291.5370278835748L529.779748373735,291.33305929624123L532.3223742161462,285.86840574232735L534.8650000585574,289.08376313099967L537.4076259009686,285.1428279394971L539.9502517433798,288.6935392547471L542.4928775857909,286.1691102792696L545.0355034282021,288.1331875047616L547.5781292706133,290.6158236636568L550.1207551130245,289.9851873546547L551.9005932027123,290.58109889516925L554.4432190451236,288.25893406676715L556.9858448875348,290.1181468677912L559.528470729946,288.8205840894096L562.0710965723571,293.60041272164983L564.6137224147683,283.90179930020497L567.1563482571795,284.8383061589368L569.6989740995907,271.2201900223309L572.2415999420019,286.3660349690143L574.784225784413,292.55001280836666L577.3268516268244,286.6595748558377L579.8694774692354,290.3609736193091L582.4121033116467,287.89089060070916L584.9547291540579,282.12137423181656L587.497354996469,286.995842110643L590.0399808388803,291.5643369830475L592.5826066812914,286.39824588937535L595.1252325237026,287.8465341713212L597.6678583661138,289.9023481916761L600.210484208525,289.7434466440742L602.7531100509362,289.29112523034564L604.5329481406241,292.3189158844388L607.0755739830352,290.7830022483214L609.6181998254465,282.4740535850455L612.1608256678576,287.9414705423148L614.7034515102688,291.16832649918615L617.24607735268,289.9426649000572L619.7887031950912,293.7390424808661L622.3313290375024,292.47545434161833L624.8739548799136,294.32949234785275L627.4165807223247,285.91043347746825L629.959206564736,294.8878974206865L632.5018324071472,291.5594585808317L635.0444582495583,291.04132337903417L637.5870840919696,284.6395065117248L640.1297099343807,290.40437720145957L642.6723357767919,287.6228580392428L645.2149616192031,286.26940074426426L647.7575874616143,294.3508655456794L650.3002133040255,285.25652413083276L652.8428391464366,290.1259394310666L655.3854649888478,292.8151553592794L657.1653030785358,288.42279451827153L659.7079289209469,292.13284940856687L662.2505547633581,293.32328054224894L664.7931806057693,291.211607133306L667.3358064481805,291.05226136276013L669.8784322905917,292.41227295870544L672.4210581330028,294.3436613765507L674.963683975414,287.0887791124717L677.5063098178252,292.0280910999587L680.0489356602365,293.08042524922394L682.5915615026477,285.2122203934579L685.1341873450589,288.57995137477184L687.67681318747,289.2657379256852L690.2194390298813,287.9443232293591L692.7620648722924,293.3029926535261L695.3046907147036,286.41244199591335L697.8473165571148,291.8149841075144L700.3899423995259,289.69532712674845L702.9325682419372,288.840292365988L705.4751940843483,289.3306852228715L708.0178199267596,292.2707531889356L709.7976580164475,282.94675509851993L712.3402838588586,286.9553951358961L714.8829097012698,286.9902040652379L717.425535543681,290.49842512656505L719.9681613860921,293.40193581301827L722.5107872285034,289.78656481115354L725.0534130709145,292.0523345488341L727.5960389133257,292.93231897781254L730.138664755737,290.1500987190877L732.6812905981482,288.1696708691874L735.2239164405594,287.3123410785216L737.7665422829705,291.9896142210361L740.3091681253817,292.80418444304524L742.8517939677929,294.416824968618L745.3944198102041,294.4152010300466L747.9370456526153,293.84618949406956L750.4796714950264,289.13582430364113L753.0222973374376,287.33669357059085L755.5649231798488,288.5563746262293L758.1075490222602,289.8912872599194L760.6501748646712,286.38661705481053L762.4300129543591,285.2950668747718L764.9726387967703,294.32866391231295L767.5152646391815,287.96559470232705L770.0578904815926,291.63060158056214L772.6005163240038,286.8031752282928L775.143142166415,290.31298144101504L777.6857680088261,288.46728999602743L780.2283938512373,286.5668735044011L782.7710196936487,294.1143962319127L785.3136455360599,288.47006071771796L787.856271378471,290.6994049058204L790.3988972208822,286.0535610854722L792.9415230632934,289.7305751561997L795.4841489057046,288.3961835879728L798.0267747481157,284.14253008053385L800.5694005905269,288.47348130757047L803.1120264329383,290.14975622100235L805.6546522753492,283.47018145663617L808.1972781177606,287.7986722593929L810.7399039601718,282.89200224220764L813.282529802583,290.9503089038513L815.0623678922708,292.9242695409731L817.6049937346819,286.69596747290757L820.1476195770931,290.8579903013434L822.6902454195044,288.58288456350283L825.2328712619154,291.39417324947226L827.7754971043267,293.03624738721385L830.318122946738,293.8694464313657L832.8607487891492,290.4429711737447L835.4033746315603,293.2504755486043L837.9460004739715,293.7814683334396L840.4886263163827,284.4940033721288L843.0312521587938,289.32697043594567L845.573878001205,291.7241167308682L848.1165038436163,295.38192383097555L850.6591296860275,289.9599844720403L853.2017555284386,290.6585568863068L855.7443813708499,288.26592454050933L858.2870072132611,289.92544485743224L860.8296330556723,285.91786890598803L863.3722588980834,285.9480555748445L865.9148847404946,288.84439356101007L867.6947228301825,291.9655998360512L870.2373486725937,288.2036147713137L872.7799745150048,286.5396668616206L875.322600357416,292.1574939022088L877.8652261998272,289.75273068405465L880.4078520422385,287.20402679086067L882.9504778846496,284.50926210093166L885.4931037270608,287.98063827207625L888.035729569472,292.79309789711556L890.5783554118831,288.90747761006537L893.1209812542943,290.1270181536688L895.6636070967056,287.88031560640695L898.2062329391168,289.16260355564845L900.7488587815279,292.89928108557876L903.2914846239391,290.3197391916992L905.8341104663504,289.25915435137773L908.3767363087616,292.4658226807179L910.9193621511727,292.03684748797434L913.4619879935839,291.2534782560746L916.0046138359952,293.92192182177706L918.5472396784062,289.9398678323601L920.3270777680941,291.08043329394786L922.8697036105053,292.7596450552784L925.4123294529165,289.71319264653425L927.9549552953276,294.68843473230925L930.4975811377388,291.20244530952266L933.0402069801501,291.3762089321618L935.5828328225614,288.4800165808658L938.1254586649724,291.89775081897506L940.6680845073837,287.7114098946452L943.2107103497949,289.68312014370616L945.7533361922061,289.02819062114975L948.2959620346172,292.6016926957464L950.8385878770284,289.26023161031287L953.3812137194396,289.1614911687046L955.9238395618507,292.85343976598745L958.466465404262,290.7870148914881L961.0090912466733,287.4913446291333L963.5517170890845,291.3782544068382L966.0943429314956,294.00166459715075L968.6369687739068,292.2291660175711L971.179594616318,287.60613710707554" style="fill: none;" fill="none"></path></g><g><path stroke="rgb(255, 112, 67)" stroke-width="2px" d="M446.63588332688903,40.12903001524313L449.1785091693002,133.55037682859975L451.7211350117114,197.20677823986597L454.26376085412255,246.08025972689774L456.8063866965337,241.71177568617378L459.349012538945,269.4735229703557L461.89163838135613,273.1065553104553L464.43426422376734,282.69675052387987L466.9768900661785,285.38877962012714L469.51951590858977,283.34475982871163L472.0621417510009,280.7618310093213L474.60476759341213,278.2951846809112L477.1473934358233,288.88870608038707L479.69001927823444,287.4528648228767L482.2326451206457,294.4208793262951L484.77527096305687,285.6483609681539L487.3178968054681,291.24288862510207L489.86052264787924,291.7102287262403L492.4031484902905,280.0234856389758L494.94577433270166,289.51346649809136L497.4884001751129,289.8788036438082L499.26823826480063,283.1018935581839L501.8108641072119,290.9812625342323L504.35348994962305,292.1496742610933L506.89611579203427,289.31754149292914L509.4387416344454,288.6955576515835L511.9813674768567,292.75061935252893L514.5239933192678,290.7179283439369L517.066619161679,290.03236719774634L519.6092450040902,288.9415137232146L522.1518708465014,289.7700824567125L524.6944966889126,286.60510302359546L527.2371225313237,292.7924480289536L529.779748373735,292.71713065084947L532.3223742161462,286.86938859746135L534.8650000585574,289.92752619195096L537.4076259009686,286.84423547952593L539.9502517433798,290.2104237557887L542.4928775857909,287.90216376418533L545.0355034282021,289.3460127440248L547.5781292706133,292.07781991918563L550.1207551130245,292.2598905840617L551.9005932027123,291.4871285471388L554.4432190451236,289.26873258843153L556.9858448875348,291.42507199233955L559.528470729946,290.14547060393426L562.0710965723571,293.7992072460272L564.6137224147683,285.76061983846466L567.1563482571795,286.6024903779443L569.6989740995907,278.632265734586L572.2415999420019,287.57913684134644L574.784225784413,292.7359907323832L577.3268516268244,285.2428285984195L579.8694774692354,291.253708783632L582.4121033116467,289.25284155547115L584.9547291540579,283.22337499445985L587.497354996469,288.35122705510196L590.0399808388803,292.34737249886416L592.5826066812914,287.00506906760927L595.1252325237026,289.7363932326497L597.6678583661138,290.60078814407626L600.210484208525,290.85084541072945L602.7531100509362,289.98196435985153L604.5329481406241,292.63307005773305L607.0755739830352,291.1964186605207L609.6181998254465,283.5549585147645L612.1608256678576,288.7071089117957L614.7034515102688,292.04373623685785L617.24607735268,290.67003496316744L619.7887031950912,294.4994255538706L622.3313290375024,293.2389030652202L624.8739548799136,294.98811616599653L627.4165807223247,286.60138530933557L629.959206564736,295.19707219873976L632.5018324071472,292.15532255216766L635.0444582495583,291.46497667845136L637.5870840919696,285.2662443435886L640.1297099343807,290.8990432342414L642.6723357767919,288.2059376108926L645.2149616192031,287.2954649976491L647.7575874616143,294.6773511137136L650.3002133040255,285.96046747127116L652.8428391464366,290.6001653537544L655.3854649888478,292.8960661409442L657.1653030785358,288.8674536350905L659.7079289209469,293.0581504325059L662.2505547633581,293.5368551763098L664.7931806057693,291.7914549281504L667.3358064481805,291.3585600350966L669.8784322905917,292.858610169776L672.4210581330028,294.2750951626291L674.963683975414,287.81762089278203L677.5063098178252,292.4673046435872L680.0489356602365,293.000182631559L682.5915615026477,285.65889790711327L685.1341873450589,288.83635071067226L687.67681318747,289.87887389982575L690.2194390298813,288.5041436682122L692.7620648722924,293.211620311754L695.3046907147036,283.74854311634346L697.8473165571148,292.0340518839443L700.3899423995259,290.0475190788559L702.9325682419372,289.38235852374964L705.4751940843483,289.5277255423117L708.0178199267596,292.38113271077793L709.7976580164475,283.36093188574205L712.3402838588586,287.3069855208536L714.8829097012698,287.45132358149255L717.425535543681,291.06934382068414L719.9681613860921,293.69238150773714L722.5107872285034,290.0230743757637L725.0534130709145,292.30994360553603L727.5960389133257,293.03550457619536L730.138664755737,290.2429918109054L732.6812905981482,288.3929913301772L735.2239164405594,287.3500173315781L737.7665422829705,292.1654745466978L740.3091681253817,292.94891257094804L742.8517939677929,294.4404280631671L745.3944198102041,294.4277109921644L747.9370456526153,293.8503031302614L750.4796714950264,289.0726290158915L753.0222973374376,287.3378454765446L755.5649231798488,288.60976919953646L758.1075490222602,289.8329645197174L760.6501748646712,286.5941401575299L762.4300129543591,285.44858505503197L764.9726387967703,294.5929758321854L767.5152646391815,288.18688505714425L770.0578904815926,291.6803918738043L772.6005163240038,286.91374795418335L775.143142166415,290.5132403642574L777.6857680088261,288.69094710043447L780.2283938512373,286.7581513667385L782.7710196936487,294.4077626741928L785.3136455360599,288.59145433397197L787.856271378471,290.62648208697976L790.3988972208822,286.0181579073156L792.9415230632934,289.7492398381847L795.4841489057046,288.71656712815286L798.0267747481157,284.5452668462382L800.5694005905269,288.55682104467394L803.1120264329383,290.34806700342585L805.6546522753492,283.47181930004433L808.1972781177606,287.85265229951267L810.7399039601718,283.21548729282733L813.282529802583,291.0038286206896L815.0623678922708,292.9843581954486L817.6049937346819,286.8843750841963L820.1476195770931,290.91632621454875L822.6902454195044,288.77157905352976L825.2328712619154,291.32455026795395L827.7754971043267,293.0300055791582L830.318122946738,293.86199197517453L832.8607487891492,290.6041465280799L835.4033746315603,293.252907431377L837.9460004739715,293.7632222602256L840.4886263163827,284.73633979519116L843.0312521587938,289.54246027831726L845.573878001205,291.70616631839454L848.1165038436163,295.3168404127553L850.6591296860275,289.94298397947006L853.2017555284386,290.8247350545555L855.7443813708499,288.28277427537535L858.2870072132611,289.98764046059944L860.8296330556723,286.04295535416236L863.3722588980834,286.45109744221384L865.9148847404946,288.99227515953214L867.6947228301825,291.9791211920877L870.2373486725937,288.20670310875005L872.7799745150048,286.87171143704023L875.322600357416,292.22180377240295L877.8652261998272,289.8419558262916L880.4078520422385,287.2763904888953L882.9504778846496,284.5209977831898L885.4931037270608,288.15079688281696L888.035729569472,292.88516621256105L890.5783554118831,289.17292094455314L893.1209812542943,290.2673384483064L895.6636070967056,287.87944472452324L898.2062329391168,289.1523549590943L900.7488587815279,292.94308863982997L903.2914846239391,290.26197118130216L905.8341104663504,289.4046047989606L908.3767363087616,292.39374293408736L910.9193621511727,292.0469072714815L913.4619879935839,291.33933769597263L916.0046138359952,293.8474387338809L918.5472396784062,289.96980421415424L920.3270777680941,291.13347073249935L922.8697036105053,292.83121398211495L925.4123294529165,289.6581748664893L927.9549552953276,294.68173699197337L930.4975811377388,291.16430507401725L933.0402069801501,291.3082274532193L935.5828328225614,288.5323119402324L938.1254586649724,291.942525857134L940.6680845073837,287.74344517496246L943.2107103497949,289.71266865373696L945.7533361922061,289.14304896410835L948.2959620346172,292.5458479438287L950.8385878770284,289.2856920983249L953.3812137194396,289.1959634546292L955.9238395618507,292.7728107402262L958.466465404262,290.8069229586163L961.0090912466733,287.54745576845085L963.5517170890845,291.49967876009987L966.0943429314956,293.98746263594467L968.6369687739068,292.2346737966104L971.179594616318,287.6787950021835" style="fill: none;" fill="none"></path></g></g></g></g></g></g><g transform="translate(34, 378)" clip-path="url(#clip_1)"><clipPath id="clip_1"><rect width="1479" height="22"></rect></clipPath><g><g><line x1="65.24200696521014" y1="0" x2="65.24200696521014" y2="5" style="visibility: inherit;" fill="rgb(0, 0, 0)" stroke="rgb(204, 204, 204)" stroke-width="1px"></line><line x1="192.37329908576976" y1="0" x2="192.37329908576976" y2="5" style="visibility: inherit;" fill="rgb(0, 0, 0)" stroke="rgb(204, 204, 204)" stroke-width="1px"></line><line x1="319.50459120632934" y1="0" x2="319.50459120632934" y2="5" style="visibility: inherit;" fill="rgb(0, 0, 0)" stroke="rgb(204, 204, 204)" stroke-width="1px"></line><line x1="446.63588332688903" y1="0" x2="446.63588332688903" y2="5" style="visibility: inherit;" fill="rgb(0, 0, 0)" stroke="rgb(204, 204, 204)" stroke-width="1px"></line><line x1="573.7671754474486" y1="0" x2="573.7671754474486" y2="5" style="visibility: inherit;" fill="rgb(0, 0, 0)" stroke="rgb(204, 204, 204)" stroke-width="1px"></line><line x1="700.8984675680082" y1="0" x2="700.8984675680082" y2="5" style="visibility: inherit;" fill="rgb(0, 0, 0)" stroke="rgb(204, 204, 204)" stroke-width="1px"></line><line x1="828.0297596885678" y1="0" x2="828.0297596885678" y2="5" style="visibility: inherit;" fill="rgb(0, 0, 0)" stroke="rgb(204, 204, 204)" stroke-width="1px"></line><line x1="955.1610518091276" y1="0" x2="955.1610518091276" y2="5" style="visibility: inherit;" fill="rgb(0, 0, 0)" stroke="rgb(204, 204, 204)" stroke-width="1px"></line><line x1="1082.2923439296871" y1="0" x2="1082.2923439296871" y2="5" style="visibility: inherit;" fill="rgb(0, 0, 0)" stroke="rgb(204, 204, 204)" stroke-width="1px"></line><line x1="1209.4236360502466" y1="0" x2="1209.4236360502466" y2="5" style="visibility: inherit;" fill="rgb(0, 0, 0)" stroke="rgb(204, 204, 204)" stroke-width="1px"></line><line x1="1336.5549281708063" y1="0" x2="1336.5549281708063" y2="5" style="visibility: inherit;" fill="rgb(0, 0, 0)" stroke="rgb(204, 204, 204)" stroke-width="1px"></line><line x1="1463.6862202913658" y1="0" x2="1463.6862202913658" y2="5" style="visibility: inherit;" fill="rgb(0, 0, 0)" stroke="rgb(204, 204, 204)" stroke-width="1px"></line></g><g transform="translate(0, 8)"><text x="65.24200696521014" y="0" dx="0em" dy="0.95em" style="text-anchor: middle; visibility: inherit; font-family: &quot;Helvetica Neue&quot;, sans-serif; font-size: 12px; font-weight: 200;" fill="rgb(50, 49, 63)" stroke="none" stroke-width="1px">-1.5k</text><text x="192.37329908576976" y="0" dx="0em" dy="0.95em" style="text-anchor: middle; visibility: inherit; font-family: &quot;Helvetica Neue&quot;, sans-serif; font-size: 12px; font-weight: 200;" fill="rgb(50, 49, 63)" stroke="none" stroke-width="1px">-1k</text><text x="319.50459120632934" y="0" dx="0em" dy="0.95em" style="text-anchor: middle; visibility: inherit; font-family: &quot;Helvetica Neue&quot;, sans-serif; font-size: 12px; font-weight: 200;" fill="rgb(50, 49, 63)" stroke="none" stroke-width="1px">-500</text><text x="446.63588332688903" y="0" dx="0em" dy="0.95em" style="text-anchor: middle; visibility: inherit; font-family: &quot;Helvetica Neue&quot;, sans-serif; font-size: 12px; font-weight: 200;" fill="rgb(50, 49, 63)" stroke="none" stroke-width="1px">0</text><text x="573.7671754474486" y="0" dx="0em" dy="0.95em" style="text-anchor: middle; visibility: inherit; font-family: &quot;Helvetica Neue&quot;, sans-serif; font-size: 12px; font-weight: 200;" fill="rgb(50, 49, 63)" stroke="none" stroke-width="1px">500</text><text x="700.8984675680082" y="0" dx="0em" dy="0.95em" style="text-anchor: middle; visibility: inherit; font-family: &quot;Helvetica Neue&quot;, sans-serif; font-size: 12px; font-weight: 200;" fill="rgb(50, 49, 63)" stroke="none" stroke-width="1px">1k</text><text x="828.0297596885678" y="0" dx="0em" dy="0.95em" style="text-anchor: middle; visibility: inherit; font-family: &quot;Helvetica Neue&quot;, sans-serif; font-size: 12px; font-weight: 200;" fill="rgb(50, 49, 63)" stroke="none" stroke-width="1px">1.5k</text><text x="955.1610518091276" y="0" dx="0em" dy="0.95em" style="text-anchor: middle; visibility: inherit; font-family: &quot;Helvetica Neue&quot;, sans-serif; font-size: 12px; font-weight: 200;" fill="rgb(50, 49, 63)" stroke="none" stroke-width="1px">2k</text><text x="1082.2923439296871" y="0" dx="0em" dy="0.95em" style="text-anchor: middle; visibility: inherit; font-family: &quot;Helvetica Neue&quot;, sans-serif; font-size: 12px; font-weight: 200;" fill="rgb(50, 49, 63)" stroke="none" stroke-width="1px">2.5k</text><text x="1209.4236360502466" y="0" dx="0em" dy="0.95em" style="text-anchor: middle; visibility: inherit; font-family: &quot;Helvetica Neue&quot;, sans-serif; font-size: 12px; font-weight: 200;" fill="rgb(50, 49, 63)" stroke="none" stroke-width="1px">3k</text><text x="1336.5549281708063" y="0" dx="0em" dy="0.95em" style="text-anchor: middle; visibility: inherit; font-family: &quot;Helvetica Neue&quot;, sans-serif; font-size: 12px; font-weight: 200;" fill="rgb(50, 49, 63)" stroke="none" stroke-width="1px">3.5k</text><text x="1463.6862202913658" y="0" dx="0em" dy="0.95em" style="text-anchor: middle; visibility: inherit; font-family: &quot;Helvetica Neue&quot;, sans-serif; font-size: 12px; font-weight: 200;" fill="rgb(50, 49, 63)" stroke="none" stroke-width="1px">4k</text></g><line x1="0" y1="0" x2="1479" y2="0" fill="rgb(0, 0, 0)" stroke="rgb(204, 204, 204)" stroke-width="1px"></line></g></g></g></g></svg>